<?xml version="1.0"?>
<svg xmlns="http://www.w3.org/2000/svg" xmlns:xlink="http://www.w3.org/1999/xlink" version="1.1" id="Capa_1" x="0px" y="0px" viewBox="0 0 512 512" style="enable-background:new 0 0 512 512;" xml:space="preserve" width="512px" height="512px" class=""><g><path style="fill:#000000" d="M313.806,0H198.194c-27.365,0-49.548,22.184-49.548,49.548v412.903  c0,27.365,22.184,49.548,49.548,49.548h115.613c27.365,0,49.548-22.184,49.548-49.548V49.548C363.355,22.184,341.171,0,313.806,0z" data-original="#A5CDFF" class="" data-old_color="#A5CDFF"/><path style="fill:#000000" d="M247.742,495.484c-36.486,0-66.065-29.578-66.065-66.065V2.88  c-19.232,6.809-33.032,25.104-33.032,46.668v412.903c0,27.365,22.184,49.548,49.548,49.548h115.613  c14.656,0,27.786-6.401,36.857-16.516L247.742,495.484L247.742,495.484z" data-original="#8CB4EB" class="" data-old_color="#8CB4EB"/><path style="fill:#DCEBFF;" d="M305.548,243.958v99.977c0,5.854,1.554,11.604,4.504,16.661l12.574,21.555  c2.124,3.64,7.696,2.134,7.696-2.081V192.323c0-4.546-6.274-5.755-7.963-1.533l-12.674,31.686  C306.953,229.308,305.548,236.599,305.548,243.958z" data-original="#DCEBFF" class=""/><path style="fill:#C4DEFF;" d="M206.452,343.935v-99.977c0-7.359-1.404-14.65-4.137-21.482L189.64,190.79  c-1.688-4.221-7.963-3.013-7.963,1.533v187.752c0,4.215,5.572,5.721,7.696,2.081l12.571-21.548  C204.896,355.547,206.452,349.794,206.452,343.935z" data-original="#C4DEFF" class=""/><g>
	<path style="fill:#FFFFFF" d="M206.452,14.345V0h-8.258c-27.365,0-49.548,22.183-49.548,49.548l39.838-11.383   C199.119,35.127,206.452,25.406,206.452,14.345z" data-original="#EDEBED" class="active-path" data-old_color="#EDEBED"/>
	<path style="fill:#FFFFFF" d="M305.548,14.345V0h8.258c27.365,0,49.548,22.183,49.548,49.548l-39.838-11.383   C312.881,35.127,305.548,25.406,305.548,14.345z" data-original="#EDEBED" class="active-path" data-old_color="#EDEBED"/>
</g><g>
	<path style="fill:#BA2F37" d="M184.498,480.378l-35.853-17.926c0,27.365,22.183,49.548,49.548,49.548v-9.464   C198.194,493.153,192.892,484.575,184.498,480.378z" data-original="#FF8087" class="" data-old_color="#FF8087"/>
	<path style="fill:#BA2F37" d="M327.502,480.378l35.853-17.926c0,27.365-22.183,49.548-49.548,49.548v-9.464   C313.806,493.153,319.108,484.575,327.502,480.378z" data-original="#FF8087" class="" data-old_color="#FF8087"/>
</g><g>
	<path style="fill:#DCEBFF;" d="M234.229,231.226h43.543c6.793,0,12.893-4.159,15.375-10.483l25.245-64.329   c1.904-4.851-1.092-10.325-6.23-11.192c-18.593-3.136-37.37-4.782-56.161-4.782s-37.568,1.646-56.161,4.782   c-5.138,0.867-8.134,6.341-6.23,11.192l25.245,64.329C221.336,227.067,227.436,231.226,234.229,231.226z" data-original="#DCEBFF" class=""/>
	<path style="fill:#DCEBFF;" d="M279.549,355.097h-47.095c-5.988,0-11.507,3.241-14.424,8.47l-22.747,40.779   c-2.762,4.952,0.157,11.257,5.751,12.181c18.202,3.006,36.578,4.582,54.965,4.582c18.388,0,36.765-1.575,54.968-4.582   c5.594-0.924,8.513-7.229,5.751-12.18l-22.746-40.779C291.056,358.338,285.537,355.097,279.549,355.097z" data-original="#DCEBFF" class=""/>
</g><g>
	<path style="fill:#C4DEFF;" d="M234.431,385.414l5.053-30.317h-7.03c-5.988,0-11.507,3.241-14.424,8.471l-22.746,40.779   c-2.762,4.952,0.156,11.256,5.751,12.18c18.202,3.007,36.578,4.582,54.966,4.582c18.389,0,36.765-1.575,54.968-4.583   c5.484-0.905,8.393-6.978,5.903-11.881h-66.148C240.516,404.645,232.753,395.481,234.431,385.414z" data-original="#C4DEFF" class=""/>
	<path style="fill:#C4DEFF;" d="M242.445,197.054l-16.569-55.228c-8.716,0.799-17.4,1.938-26.053,3.398   c-5.134,0.866-8.117,6.342-6.214,11.189l25.245,64.33c2.482,6.324,8.582,10.483,15.375,10.483h43.542   c6.793,0,12.894-4.159,15.375-10.483l2.367-6.033h-29.339C255.234,214.71,245.589,207.533,242.445,197.054z" data-original="#C4DEFF" class=""/>
</g><rect x="181.68" y="305.55" style="fill:#43484D" width="24.774" height="16.516" data-original="#739BD7" class="" data-old_color="#739BD7"/><rect x="305.55" y="305.55" style="fill:#000000" width="24.774" height="16.516" data-original="#8CB4EB" class="" data-old_color="#8CB4EB"/></g> </svg>
