<?xml version="1.0"?>
<svg xmlns="http://www.w3.org/2000/svg" id="Layer_1" data-name="Layer 1" viewBox="0 0 512 512" width="512" height="512"><title>Transport Truck location</title><path d="M514.1,391.312a6,6,0,0,0-.247-.986c-.015-.044-.032-.087-.048-.131a6,6,0,0,0-.443-.937c-.024-.04-.048-.08-.073-.12a6.074,6.074,0,0,0-.643-.86c-.015-.017-.025-.037-.041-.054l-39.546-43.09a21.408,21.408,0,0,0-15.731-6.914h-43.1V318.646a21.376,21.376,0,0,0-21.352-21.352h-1.837c2.231-4.849,4.28-9.749,6.071-14.66a203.025,203.025,0,0,0,12.267-83.575A215.526,215.526,0,0,0,347.15,61.236a202.4,202.4,0,0,0-286.675,0A215.521,215.521,0,0,0-1.754,199.059a203.041,203.041,0,0,0,12.266,83.575c9.7,26.595,25.509,51.676,46.978,74.543l141.948,151.2a6,6,0,0,0,8.749,0l38.728-41.252a21.239,21.239,0,0,0,6.626,1.066H267.29a32.86,32.86,0,0,0,64.617,0h89.662a32.86,32.86,0,0,0,64.617,0h6.649a21.378,21.378,0,0,0,21.353-21.353V392.28a5.965,5.965,0,0,0-.063-.818C514.119,391.412,514.111,391.362,514.1,391.312ZM457.331,350.22a9.375,9.375,0,0,1,6.89,3.028l30.316,33.032H414.23V350.22ZM203.812,495.5,66.239,348.964c-20.353-21.679-35.309-45.38-44.454-70.443a191.1,191.1,0,0,1-11.566-78.662A203.525,203.525,0,0,1,68.975,69.706a190.4,190.4,0,0,1,269.674,0,203.526,203.526,0,0,1,58.757,130.153,191.1,191.1,0,0,1-11.567,78.662,185.174,185.174,0,0,1-8.095,18.773h-124.2a21.377,21.377,0,0,0-21.353,21.352V446.833a21.238,21.238,0,0,0,4.744,13.39Zm40.376-48.667V318.646a9.362,9.362,0,0,1,9.353-9.352H392.878a9.362,9.362,0,0,1,9.352,9.352v137.54H331.907a32.859,32.859,0,0,0-64.617,0H253.541A9.363,9.363,0,0,1,244.188,446.833Zm55.41,36.22a20.868,20.868,0,1,1,20.867-20.867A20.891,20.891,0,0,1,299.6,483.053Zm154.28,0a20.868,20.868,0,1,1,20.867-20.867A20.891,20.891,0,0,1,453.878,483.053Zm48.31-36.22a9.364,9.364,0,0,1-9.353,9.353h-6.649a32.859,32.859,0,0,0-64.617,0H414.23V398.28h87.958Z"/><path d="M246.105,164.854l-56.249,51.521-27.978-30.339a6,6,0,1,0-8.822,8.135l32.032,34.735a6,6,0,0,0,8.464.358L254.21,173.7a6,6,0,0,0-8.105-8.85Z"/><path d="M309.812,197.06c0-59.93-47.551-108.687-106-108.687s-106,48.757-106,108.687,47.552,108.685,106,108.685S309.812,256.989,309.812,197.06Zm-106,96.685c-51.832,0-94-43.373-94-96.685s42.168-96.687,94-96.687,94,43.373,94,96.687S255.644,293.745,203.812,293.745Z"/></svg>
