<?xml version="1.0" encoding="utf-8"?>
<!-- Generator: Adobe Illustrator 23.1.0, SVG Export Plug-In . SVG Version: 6.00 Build 0)  -->
<svg version="1.1" id="Layer_1" xmlns="http://www.w3.org/2000/svg" xmlns:xlink="http://www.w3.org/1999/xlink" x="0px" y="0px"
	 viewBox="0 0 101.13 560.68" style="enable-background:new 0 0 101.13 560.68;" xml:space="preserve">
<style type="text/css">
	.st0{fill:#CCCCCC;}
	.st1{fill:#808080;}
	.st2{fill:#999999;}
	.st3{fill:#B3B3B3;}
	.st4{fill:none;stroke:#808080;stroke-miterlimit:10;}
	.st5{fill:#666666;}
	.st6{fill:url(#SVGID_1_);}
	.st7{fill:none;stroke:#808080;stroke-width:2;stroke-miterlimit:10;}
	.st8{fill:none;stroke:#999999;stroke-linecap:round;stroke-miterlimit:10;}
	.st9{fill:none;stroke:#B3B3B3;stroke-miterlimit:10;}
	.st10{fill:none;stroke:#4D4D4D;stroke-miterlimit:10;}
	.st11{fill:none;stroke:#CCCCCC;stroke-width:3;stroke-linecap:round;stroke-miterlimit:10;}
	.st12{fill:none;stroke:#E6E6E6;stroke-width:3;stroke-linecap:round;stroke-miterlimit:10;}
	.st13{fill:none;stroke:#808080;stroke-width:2;stroke-linecap:round;stroke-miterlimit:10;}
	.st14{fill:none;stroke:#808080;stroke-width:4;stroke-linecap:round;stroke-miterlimit:10;}
	.st15{fill:none;stroke:#808080;stroke-linecap:round;stroke-miterlimit:10;}
</style>
<g>
	<rect x="83.72" y="76.06" class="st0" width="7.09" height="13.45"/>
	<path class="st0" d="M90.47,77.74H10.66c-1.08,0-1.96-0.88-1.96-1.96V8.44c0-2.7,2.06-4.95,4.75-5.18
		c6.27-0.54,18.71-1.35,37.11-1.35s30.84,0.81,37.11,1.35c2.69,0.23,4.75,2.48,4.75,5.18v67.34C92.43,76.87,91.55,77.74,90.47,77.74
		z"/>
	<g>
		<path class="st2" d="M8.51,18.48c0.16-0.88,0.54-1.72,1.16-2.46c0.61-0.74,1.48-1.3,2.42-1.63c0.47-0.16,0.96-0.27,1.45-0.34
			l1.25-0.16l2.49-0.32c1.66-0.24,3.32-0.35,4.98-0.54l2.49-0.25l2.49-0.18l4.98-0.36l4.98-0.22c1.66-0.06,3.32-0.18,4.98-0.19
			l4.98-0.07c1.66-0.01,3.32-0.08,4.98-0.04l4.98,0.07c1.66,0.03,3.32,0.02,4.98,0.1l4.98,0.22c1.66,0.07,3.32,0.13,4.98,0.27
			L77,12.73c1.66,0.13,3.32,0.32,4.98,0.48c1.66,0.15,3.32,0.37,4.98,0.58l0.28,0.03c0.25,0.07,0.41,0.14,0.61,0.21
			c0.18,0.08,0.37,0.15,0.54,0.23c0.35,0.17,0.7,0.34,1.03,0.55c0.66,0.42,1.29,0.9,1.84,1.48c0.26,0.3,0.52,0.6,0.73,0.95
			c0.11,0.16,0.21,0.34,0.28,0.53c0.07,0.19,0.17,0.36,0.22,0.55c0.11,0.38,0.2,0.76,0.2,1.14c0.06,0.37-0.04,0.75-0.05,1.11h-0.4
			c-0.05-0.32-0.02-0.66-0.13-0.97c-0.06-0.32-0.19-0.62-0.33-0.92c-0.06-0.15-0.17-0.28-0.25-0.42c-0.08-0.14-0.19-0.27-0.3-0.39
			c-0.2-0.26-0.45-0.47-0.7-0.69c-1.04-0.82-2.32-1.36-3.61-1.64l0.04,0l-19.91,0.09c-6.64,0.01-13.27,0.1-19.91,0.05l-19.91-0.09
			l-9.95-0.05l-2.49-0.01c-0.84,0.01-1.66-0.06-2.43,0.11c-1.57,0.29-2.91,1.48-3.47,2.96L8.51,18.48z"/>
	</g>
	<line class="st7" x1="12.55" y1="12.66" x2="12.55" y2="20.57"/>
	<line class="st7" x1="89.19" y1="12.66" x2="89.19" y2="20.57"/>
	<line class="st7" x1="57.96" y1="12.66" x2="57.96" y2="20.57"/>
	<line class="st7" x1="50.56" y1="12.66" x2="50.56" y2="20.57"/>
	<line class="st7" x1="43.16" y1="12.66" x2="43.16" y2="20.57"/>
	<line class="st7" x1="77.83" y1="10.23" x2="77.83" y2="33.34"/>
	<line class="st7" x1="21.88" y1="10.23" x2="21.88" y2="33.34"/>
	<path class="st3" d="M87.68,3.27c-6.27-0.54-18.71-1.35-37.11-1.35c-18.4,0-30.84,0.81-37.11,1.35C10.76,3.5,8.7,5.75,8.7,8.44
		v2.43c0-2.7,2.06-4.95,4.75-5.18c6.27-0.54,18.71-1.35,37.11-1.35c18.4,0,30.84,0.81,37.11,1.35c2.69,0.23,4.75,2.48,4.75,5.18
		V8.44C92.43,5.75,90.37,3.5,87.68,3.27z"/>
	<path class="st4" d="M25.93,0.5h12.1c1.65,0,3.28,0.32,4.81,0.94l2.88,1.17c1.53,0.62,3.16,0.94,4.81,0.94h1.39
		c2.11,0,4.18-0.52,6.04-1.52l0.02-0.01c1.86-1,3.93-1.52,6.04-1.52h9.76"/>
	<line class="st9" x1="38.03" y1="0.5" x2="64.01" y2="0.5"/>
	<g>
		<polyline class="st4" points="8.7,39.83 6.06,39.83 6.06,68.82 		"/>
		<line class="st4" x1="6.06" y1="48.75" x2="8.7" y2="48.75"/>
		<line class="st4" x1="6.06" y1="64.77" x2="8.7" y2="64.77"/>
	</g>
	<g>
		<polyline class="st4" points="92.43,39.83 95.07,39.83 95.07,68.82 		"/>
		<line class="st4" x1="95.07" y1="48.75" x2="92.43" y2="48.75"/>
		<line class="st4" x1="95.07" y1="64.77" x2="92.43" y2="64.77"/>
	</g>
	<rect x="27.76" y="77.74" class="st1" width="46.02" height="42.98"/>
	<path class="st1" d="M22.89,120.73H10.32V89.51c0-3.03,2.45-5.48,5.48-5.48h1.61c3.03,0,5.48,2.45,5.48,5.48V120.73z"/>
	<path class="st3" d="M32.01,120.73H17.41V86.52c0-1.95,1.58-3.53,3.53-3.53h7.55c1.95,0,3.53,1.58,3.53,3.53V120.73z"/>
	<path class="st5" d="M11.94,100.86H8.85v5.27h3.09c0.81,0,1.47-1.18,1.47-2.64C13.41,102.04,12.75,100.86,11.94,100.86z"/>
	<ellipse class="st0" cx="8.85" cy="103.49" rx="1.47" ry="2.64"/>
	<line class="st10" x1="10.32" y1="98.73" x2="22.89" y2="98.73"/>
	<path class="st1" d="M78.24,120.73h12.57V89.51c0-3.03-2.45-5.48-5.48-5.48h-1.61c-3.03,0-5.48,2.45-5.48,5.48V120.73z"/>
	<path class="st3" d="M69.12,120.73h14.61V86.52c0-1.95-1.58-3.53-3.53-3.53h-7.55c-1.95,0-3.53,1.58-3.53,3.53V120.73z"/>
	<path class="st5" d="M89.19,100.86h3.09v5.27h-3.09c-0.81,0-1.47-1.18-1.47-2.64C87.72,102.04,88.38,100.86,89.19,100.86z"/>
	<ellipse class="st0" cx="92.28" cy="103.49" rx="1.47" ry="2.64"/>
	<line class="st10" x1="90.81" y1="98.73" x2="78.24" y2="98.73"/>
	<path class="st5" d="M82.04,99.24H20.58c-0.71,0-1.28-0.57-1.28-1.28v-2.62c0-0.71,0.57-1.28,1.28-1.28h61.46
		c0.71,0,1.28,0.57,1.28,1.28v2.62C83.32,98.66,82.75,99.24,82.04,99.24z"/>
	<rect x="8.85" y="119.1" class="st0" width="86.22" height="441.57"/>
	<path class="st3" d="M90.75,120.93H13.17c-1.38,0-2.49,1.12-2.49,2.49v432.93c0,1.38,1.12,2.49,2.49,2.49h77.58
		c1.38,0,2.49-1.12,2.49-2.49V123.42C93.24,122.05,92.12,120.93,90.75,120.93z"/>
	<line class="st10" x1="92.43" y1="21.79" x2="101.13" y2="21.79"/>
	<line class="st10" x1="0" y1="21.79" x2="8.7" y2="21.79"/>
	<rect x="39.31" y="84.03" class="st0" width="9.12" height="36.7"/>
	<rect x="52.79" y="84.03" class="st0" width="9.12" height="36.7"/>
</g>
</svg>
