<?xml version="1.0" encoding="utf-8"?>
<!-- Generator: Adobe Illustrator 23.1.0, SVG Export Plug-In . SVG Version: 6.00 Build 0)  -->
<svg version="1.1" id="Layer_1" xmlns="http://www.w3.org/2000/svg" xmlns:xlink="http://www.w3.org/1999/xlink" x="0px" y="0px"
	 viewBox="0 0 103.97 672.07" style="enable-background:new 0 0 103.97 672.07;" xml:space="preserve">
<style type="text/css">
	.st0{fill:#CCCCCC;}
	.st1{fill:#808080;}
	.st2{fill:#999999;}
	.st3{fill:#B3B3B3;}
	.st4{fill:none;stroke:#808080;stroke-miterlimit:10;}
	.st5{fill:#666666;}
	.st6{fill:url(#SVGID_1_);}
	.st7{fill:none;stroke:#808080;stroke-width:2;stroke-miterlimit:10;}
	.st8{fill:none;stroke:#999999;stroke-linecap:round;stroke-miterlimit:10;}
	.st9{fill:none;stroke:#B3B3B3;stroke-miterlimit:10;}
	.st10{fill:none;stroke:#4D4D4D;stroke-miterlimit:10;}
	.st11{fill:none;stroke:#CCCCCC;stroke-width:3;stroke-linecap:round;stroke-miterlimit:10;}
	.st12{fill:none;stroke:#E6E6E6;stroke-width:3;stroke-linecap:round;stroke-miterlimit:10;}
	.st13{fill:none;stroke:#808080;stroke-width:2;stroke-linecap:round;stroke-miterlimit:10;}
	.st14{fill:none;stroke:#808080;stroke-width:4;stroke-linecap:round;stroke-miterlimit:10;}
	.st15{fill:none;stroke:#808080;stroke-linecap:round;stroke-miterlimit:10;}
</style>
<g>
	<path class="st0" d="M93.64,73.62H10.33V22.28C10.33,9.97,20.31,0,32.61,0h38.75c12.3,0,22.28,9.97,22.28,22.28V73.62z"/>
	<path class="st1" d="M79.02,58.45c0,0-4.41-4.08-25.19-4.25c-0.43,0-0.87-0.01-1.33-0.01c-0.47,0-0.91,0-1.33,0.01
		c-20.78,0.17-25.19,4.25-25.19,4.25l-0.51,3.9l54.07,0.4L79.02,58.45z"/>
	<rect x="10.33" y="73.62" class="st2" width="83.31" height="45.21"/>
	<polygon class="st1" points="94.66,203.75 9.32,203.75 10.33,183.09 93.64,183.09 	"/>
	<path class="st3" d="M84.92,100.1V69.75h-4.2v-6.46c0,0-9.04-4.84-28.74-4.84s-28.74,4.84-28.74,4.84v6.46h-4.2v30.35
		c-5.81,4.84-8.72,10.66-8.72,18.73H38.1h27.77h27.77C93.64,110.76,90.74,104.94,84.92,100.1z"/>
	<path class="st2" d="M22.76,73.62l1.29-3.23c0,0,8.72-4.84,27.93-4.84c13.54,0,20.82,2,23.95,3.19c1.14,0.43,1.89,1.53,1.89,2.75
		v1.49l-1.06-1.86c-0.15-0.26-0.39-0.45-0.68-0.52c-2.24-0.56-12.54-2.95-24.09-2.95C38.91,67.65,25.35,70.55,22.76,73.62z"/>
	<path class="st4" d="M86.86,104.14c0,0-4.2-4.52-3.87,4.68c0,0-1.13,0.16-3.55-1.61c-2.42-1.78-4.2-1.74-8.72-4.18
		s-12.11-4.7-18.73-4.7s-14.21,2.26-18.73,4.7s-6.3,2.4-8.72,4.18c-2.42,1.78-3.55,1.61-3.55,1.61c0.32-9.2-3.87-4.68-3.87-4.68"/>
	<rect x="10.33" y="118.83" class="st1" width="83.31" height="64.26"/>
	<rect x="19.86" y="150.96" class="st5" width="62.16" height="14.21"/>
	<path class="st1" d="M17.38,113.78c2.13-1.6,16.44-11.99,31.09-13.76c0.41-0.05,0.76,0.27,0.76,0.68v9.93
		c0,0.34-0.25,0.63-0.58,0.68c-2.87,0.4-15.92,2.64-30.51,11.4c-0.46,0.27-1.04-0.05-1.04-0.58v-7.81
		C17.11,114.11,17.21,113.91,17.38,113.78z"/>
	<path class="st1" d="M86.59,113.78c-2.13-1.6-16.44-11.99-31.09-13.76c-0.41-0.05-0.76,0.27-0.76,0.68v9.93
		c0,0.34,0.25,0.63,0.58,0.68c2.87,0.4,15.92,2.64,30.51,11.4c0.46,0.27,1.04-0.05,1.04-0.58v-7.81
		C86.86,114.11,86.76,113.91,86.59,113.78z"/>
	<polygon class="st1" points="6.78,73.62 19.05,73.62 19.05,71.2 6.78,71.85 	"/>
	<path class="st2" d="M1.75,77.82h1.83c1.77,0,3.2-1.43,3.2-3.2v-2.78H1.1c-0.61,0-1.1,0.49-1.1,1.1v3.12
		C0,77.04,0.78,77.82,1.75,77.82z"/>
	<polygon class="st1" points="97.19,73.62 84.92,73.62 84.92,71.2 97.19,71.85 	"/>
	<path class="st2" d="M102.22,77.82h-1.83c-1.77,0-3.2-1.43-3.2-3.2v-2.78h5.68c0.61,0,1.1,0.49,1.1,1.1v3.12
		C103.97,77.04,103.19,77.82,102.22,77.82z"/>
	<path class="st1" d="M68.85,5.56H36.14c-1,0-1.81-0.81-1.81-1.81V0h36.33v3.75C70.66,4.75,69.85,5.56,68.85,5.56z"/>
	<path class="st1" d="M14.65,16.05c1.39-3.36,7.05-8.45,10.91-10.5c3.84-2.04,1.36-4.79-0.83-4.12C19,3.61,14.4,8.06,12.05,13.7
		C10.76,18.12,13.26,19.41,14.65,16.05z"/>
	<path class="st1" d="M89.29,16.05c-1.39-3.36-7.05-8.45-10.91-10.5c-3.84-2.04-1.36-4.79,0.83-4.12
		C84.94,3.61,89.55,8.06,91.9,13.7C93.18,18.12,90.69,19.41,89.29,16.05z"/>
	<path class="st4" d="M65.66,5.56c0,0,4.92,14.01,10.25,52.89"/>
	<g>
		<path class="st1" d="M77.32,59.66c-0.87-7.12-1.78-14.24-2.74-21.36c-0.49-3.56-0.99-7.11-1.52-10.66
			c-0.55-3.55-1.09-7.1-1.83-10.61c0.82,3.5,1.45,7.03,2.07,10.57c0.61,3.54,1.2,7.08,1.77,10.63c1.13,7.09,2.21,14.19,3.24,21.3
			L77.32,59.66z"/>
	</g>
	<path class="st4" d="M38.68,5.56c0,0-5.74,18.03-9.27,52.89"/>
	<linearGradient id="SVGID_1_" gradientUnits="userSpaceOnUse" x1="52.8251" y1="7.4267" x2="52.8251" y2="36.3108">
		<stop  offset="0" style="stop-color:#999999"/>
		<stop  offset="1" style="stop-color:#CCCCCC"/>
	</linearGradient>
	<polyline class="st6" points="56.47,50.91 54.51,6.62 50.29,6.62 49.18,36.81 	"/>
	<polygon class="st5" points="66.76,186.17 66.76,176.79 37.15,176.79 37.15,190.27 19.86,190.27 19.86,203.75 37.15,203.75 
		44.9,203.75 63.99,203.75 66.76,203.75 84.92,203.75 84.92,186.17 	"/>
	<rect x="6.78" y="203.75" class="st0" width="90.41" height="468.32"/>
	<path class="st0" d="M91.33,670.78H12.64c-2.52,0-4.57-2.04-4.57-4.57v-456.6c0-2.52,2.04-4.57,4.57-4.57h78.69
		c2.52,0,4.57,2.04,4.57,4.57v456.6C95.9,668.73,93.86,670.78,91.33,670.78z"/>
	<path class="st3" d="M87.78,219.94H12.56c-1.23,0-2.23-1-2.23-2.23v-5.78c0-1.23,1-2.23,2.23-2.23h75.22c1.23,0,2.23,1,2.23,2.23
		v5.78C90.01,218.94,89.01,219.94,87.78,219.94z"/>
	<path class="st1" d="M87.78,209.69H12.56c-1.23,0-2.23,1-2.23,2.23v2.59c0-1.23,1-2.23,2.23-2.23h75.22c1.23,0,2.23,1,2.23,2.23
		v-2.59C90.01,210.69,89.01,209.69,87.78,209.69z"/>
	<path class="st3" d="M87.78,237.05H12.56c-1.23,0-2.23-1-2.23-2.23v-5.78c0-1.23,1-2.23,2.23-2.23h75.22c1.23,0,2.23,1,2.23,2.23
		v5.78C90.01,236.05,89.01,237.05,87.78,237.05z"/>
	<path class="st1" d="M87.78,226.81H12.56c-1.23,0-2.23,1-2.23,2.23v2.59c0-1.23,1-2.23,2.23-2.23h75.22c1.23,0,2.23,1,2.23,2.23
		v-2.59C90.01,227.81,89.01,226.81,87.78,226.81z"/>
	<path class="st3" d="M87.78,254.16H12.56c-1.23,0-2.23-1-2.23-2.23v-5.78c0-1.23,1-2.23,2.23-2.23h75.22c1.23,0,2.23,1,2.23,2.23
		v5.78C90.01,253.16,89.01,254.16,87.78,254.16z"/>
	<path class="st1" d="M87.78,243.92H12.56c-1.23,0-2.23,1-2.23,2.23v2.59c0-1.23,1-2.23,2.23-2.23h75.22c1.23,0,2.23,1,2.23,2.23
		v-2.59C90.01,244.92,89.01,243.92,87.78,243.92z"/>
	<path class="st3" d="M87.78,271.27H12.56c-1.23,0-2.23-1-2.23-2.23v-5.78c0-1.23,1-2.23,2.23-2.23h75.22c1.23,0,2.23,1,2.23,2.23
		v5.78C90.01,270.27,89.01,271.27,87.78,271.27z"/>
	<path class="st1" d="M87.78,261.03H12.56c-1.23,0-2.23,1-2.23,2.23v2.59c0-1.23,1-2.23,2.23-2.23h75.22c1.23,0,2.23,1,2.23,2.23
		v-2.59C90.01,262.03,89.01,261.03,87.78,261.03z"/>
	<path class="st3" d="M87.78,288.38H12.56c-1.23,0-2.23-1-2.23-2.23v-5.78c0-1.23,1-2.23,2.23-2.23h75.22c1.23,0,2.23,1,2.23,2.23
		v5.78C90.01,287.39,89.01,288.38,87.78,288.38z"/>
	<path class="st1" d="M87.78,278.14H12.56c-1.23,0-2.23,1-2.23,2.23v2.59c0-1.23,1-2.23,2.23-2.23h75.22c1.23,0,2.23,1,2.23,2.23
		v-2.59C90.01,279.14,89.01,278.14,87.78,278.14z"/>
	<path class="st3" d="M87.78,305.5H12.56c-1.23,0-2.23-1-2.23-2.23v-5.78c0-1.23,1-2.23,2.23-2.23h75.22c1.23,0,2.23,1,2.23,2.23
		v5.78C90.01,304.5,89.01,305.5,87.78,305.5z"/>
	<path class="st1" d="M87.78,295.26H12.56c-1.23,0-2.23,1-2.23,2.23v2.59c0-1.23,1-2.23,2.23-2.23h75.22c1.23,0,2.23,1,2.23,2.23
		v-2.59C90.01,296.25,89.01,295.26,87.78,295.26z"/>
	<path class="st3" d="M87.78,322.61H12.56c-1.23,0-2.23-1-2.23-2.23v-5.78c0-1.23,1-2.23,2.23-2.23h75.22c1.23,0,2.23,1,2.23,2.23
		v5.78C90.01,321.61,89.01,322.61,87.78,322.61z"/>
	<path class="st1" d="M87.78,312.37H12.56c-1.23,0-2.23,1-2.23,2.23v2.59c0-1.23,1-2.23,2.23-2.23h75.22c1.23,0,2.23,1,2.23,2.23
		v-2.59C90.01,313.37,89.01,312.37,87.78,312.37z"/>
	<path class="st3" d="M87.78,339.72H12.56c-1.23,0-2.23-1-2.23-2.23v-5.78c0-1.23,1-2.23,2.23-2.23h75.22c1.23,0,2.23,1,2.23,2.23
		v5.78C90.01,338.72,89.01,339.72,87.78,339.72z"/>
	<path class="st1" d="M87.78,329.48H12.56c-1.23,0-2.23,1-2.23,2.23v2.59c0-1.23,1-2.23,2.23-2.23h75.22c1.23,0,2.23,1,2.23,2.23
		v-2.59C90.01,330.48,89.01,329.48,87.78,329.48z"/>
	<path class="st3" d="M87.78,356.83H12.56c-1.23,0-2.23-1-2.23-2.23v-5.78c0-1.23,1-2.23,2.23-2.23h75.22c1.23,0,2.23,1,2.23,2.23
		v5.78C90.01,355.84,89.01,356.83,87.78,356.83z"/>
	<path class="st1" d="M87.78,346.59H12.56c-1.23,0-2.23,1-2.23,2.23v2.59c0-1.23,1-2.23,2.23-2.23h75.22c1.23,0,2.23,1,2.23,2.23
		v-2.59C90.01,347.59,89.01,346.59,87.78,346.59z"/>
	<path class="st3" d="M87.78,373.95H12.56c-1.23,0-2.23-1-2.23-2.23v-5.78c0-1.23,1-2.23,2.23-2.23h75.22c1.23,0,2.23,1,2.23,2.23
		v5.78C90.01,372.95,89.01,373.95,87.78,373.95z"/>
	<path class="st1" d="M87.78,363.71H12.56c-1.23,0-2.23,1-2.23,2.23v2.59c0-1.23,1-2.23,2.23-2.23h75.22c1.23,0,2.23,1,2.23,2.23
		v-2.59C90.01,364.7,89.01,363.71,87.78,363.71z"/>
	<path class="st3" d="M87.78,391.06H12.56c-1.23,0-2.23-1-2.23-2.23v-5.78c0-1.23,1-2.23,2.23-2.23h75.22c1.23,0,2.23,1,2.23,2.23
		v5.78C90.01,390.06,89.01,391.06,87.78,391.06z"/>
	<path class="st1" d="M87.78,380.82H12.56c-1.23,0-2.23,1-2.23,2.23v2.59c0-1.23,1-2.23,2.23-2.23h75.22c1.23,0,2.23,1,2.23,2.23
		v-2.59C90.01,381.82,89.01,380.82,87.78,380.82z"/>
	<path class="st3" d="M87.78,408.17H12.56c-1.23,0-2.23-1-2.23-2.23v-5.78c0-1.23,1-2.23,2.23-2.23h75.22c1.23,0,2.23,1,2.23,2.23
		v5.78C90.01,407.17,89.01,408.17,87.78,408.17z"/>
	<path class="st1" d="M87.78,397.93H12.56c-1.23,0-2.23,1-2.23,2.23v2.59c0-1.23,1-2.23,2.23-2.23h75.22c1.23,0,2.23,1,2.23,2.23
		v-2.59C90.01,398.93,89.01,397.93,87.78,397.93z"/>
	<path class="st3" d="M87.78,425.28H12.56c-1.23,0-2.23-1-2.23-2.23v-5.78c0-1.23,1-2.23,2.23-2.23h75.22c1.23,0,2.23,1,2.23,2.23
		v5.78C90.01,424.28,89.01,425.28,87.78,425.28z"/>
	<path class="st1" d="M87.78,415.04H12.56c-1.23,0-2.23,1-2.23,2.23v2.59c0-1.23,1-2.23,2.23-2.23h75.22c1.23,0,2.23,1,2.23,2.23
		v-2.59C90.01,416.04,89.01,415.04,87.78,415.04z"/>
	<path class="st3" d="M87.78,442.4H12.56c-1.23,0-2.23-1-2.23-2.23v-5.78c0-1.23,1-2.23,2.23-2.23h75.22c1.23,0,2.23,1,2.23,2.23
		v5.78C90.01,441.4,89.01,442.4,87.78,442.4z"/>
	<path class="st1" d="M87.78,432.15H12.56c-1.23,0-2.23,1-2.23,2.23v2.59c0-1.23,1-2.23,2.23-2.23h75.22c1.23,0,2.23,1,2.23,2.23
		v-2.59C90.01,433.15,89.01,432.15,87.78,432.15z"/>
	<path class="st3" d="M87.78,459.51H12.56c-1.23,0-2.23-1-2.23-2.23v-5.78c0-1.23,1-2.23,2.23-2.23h75.22c1.23,0,2.23,1,2.23,2.23
		v5.78C90.01,458.51,89.01,459.51,87.78,459.51z"/>
	<path class="st1" d="M87.78,449.27H12.56c-1.23,0-2.23,1-2.23,2.23v2.59c0-1.23,1-2.23,2.23-2.23h75.22c1.23,0,2.23,1,2.23,2.23
		v-2.59C90.01,450.27,89.01,449.27,87.78,449.27z"/>
	<path class="st3" d="M87.78,476.62H12.56c-1.23,0-2.23-1-2.23-2.23v-5.78c0-1.23,1-2.23,2.23-2.23h75.22c1.23,0,2.23,1,2.23,2.23
		v5.78C90.01,475.62,89.01,476.62,87.78,476.62z"/>
	<path class="st1" d="M87.78,466.38H12.56c-1.23,0-2.23,1-2.23,2.23v2.59c0-1.23,1-2.23,2.23-2.23h75.22c1.23,0,2.23,1,2.23,2.23
		v-2.59C90.01,467.38,89.01,466.38,87.78,466.38z"/>
	<path class="st3" d="M87.78,493.73H12.56c-1.23,0-2.23-1-2.23-2.23v-5.78c0-1.23,1-2.23,2.23-2.23h75.22c1.23,0,2.23,1,2.23,2.23
		v5.78C90.01,492.73,89.01,493.73,87.78,493.73z"/>
	<path class="st1" d="M87.78,483.49H12.56c-1.23,0-2.23,1-2.23,2.23v2.59c0-1.23,1-2.23,2.23-2.23h75.22c1.23,0,2.23,1,2.23,2.23
		v-2.59C90.01,484.49,89.01,483.49,87.78,483.49z"/>
	<path class="st3" d="M87.78,510.84H12.56c-1.23,0-2.23-1-2.23-2.23v-5.78c0-1.23,1-2.23,2.23-2.23h75.22c1.23,0,2.23,1,2.23,2.23
		v5.78C90.01,509.85,89.01,510.84,87.78,510.84z"/>
	<path class="st1" d="M87.78,500.6H12.56c-1.23,0-2.23,1-2.23,2.23v2.59c0-1.23,1-2.23,2.23-2.23h75.22c1.23,0,2.23,1,2.23,2.23
		v-2.59C90.01,501.6,89.01,500.6,87.78,500.6z"/>
	<path class="st3" d="M87.78,527.96H12.56c-1.23,0-2.23-1-2.23-2.23v-5.78c0-1.23,1-2.23,2.23-2.23h75.22c1.23,0,2.23,1,2.23,2.23
		v5.78C90.01,526.96,89.01,527.96,87.78,527.96z"/>
	<path class="st1" d="M87.78,517.72H12.56c-1.23,0-2.23,1-2.23,2.23v2.59c0-1.23,1-2.23,2.23-2.23h75.22c1.23,0,2.23,1,2.23,2.23
		v-2.59C90.01,518.72,89.01,517.72,87.78,517.72z"/>
	<path class="st3" d="M87.78,545.07H12.56c-1.23,0-2.23-1-2.23-2.23v-5.78c0-1.23,1-2.23,2.23-2.23h75.22c1.23,0,2.23,1,2.23,2.23
		v5.78C90.01,544.07,89.01,545.07,87.78,545.07z"/>
	<path class="st1" d="M87.78,534.83H12.56c-1.23,0-2.23,1-2.23,2.23v2.59c0-1.23,1-2.23,2.23-2.23h75.22c1.23,0,2.23,1,2.23,2.23
		v-2.59C90.01,535.83,89.01,534.83,87.78,534.83z"/>
	<path class="st3" d="M87.78,562.18H12.56c-1.23,0-2.23-1-2.23-2.23v-5.78c0-1.23,1-2.23,2.23-2.23h75.22c1.23,0,2.23,1,2.23,2.23
		v5.78C90.01,561.18,89.01,562.18,87.78,562.18z"/>
	<path class="st1" d="M87.78,551.94H12.56c-1.23,0-2.23,1-2.23,2.23v2.59c0-1.23,1-2.23,2.23-2.23h75.22c1.23,0,2.23,1,2.23,2.23
		v-2.59C90.01,552.94,89.01,551.94,87.78,551.94z"/>
	<path class="st3" d="M87.78,579.29H12.56c-1.23,0-2.23-1-2.23-2.23v-5.78c0-1.23,1-2.23,2.23-2.23h75.22c1.23,0,2.23,1,2.23,2.23
		v5.78C90.01,578.3,89.01,579.29,87.78,579.29z"/>
	<path class="st1" d="M87.78,569.05H12.56c-1.23,0-2.23,1-2.23,2.23v2.59c0-1.23,1-2.23,2.23-2.23h75.22c1.23,0,2.23,1,2.23,2.23
		v-2.59C90.01,570.05,89.01,569.05,87.78,569.05z"/>
	<path class="st3" d="M87.78,596.41H12.56c-1.23,0-2.23-1-2.23-2.23v-5.78c0-1.23,1-2.23,2.23-2.23h75.22c1.23,0,2.23,1,2.23,2.23
		v5.78C90.01,595.41,89.01,596.41,87.78,596.41z"/>
	<path class="st1" d="M87.78,586.17H12.56c-1.23,0-2.23,1-2.23,2.23v2.59c0-1.23,1-2.23,2.23-2.23h75.22c1.23,0,2.23,1,2.23,2.23
		v-2.59C90.01,587.16,89.01,586.17,87.78,586.17z"/>
	<path class="st3" d="M87.78,613.52H12.56c-1.23,0-2.23-1-2.23-2.23v-5.78c0-1.23,1-2.23,2.23-2.23h75.22c1.23,0,2.23,1,2.23,2.23
		v5.78C90.01,612.52,89.01,613.52,87.78,613.52z"/>
	<path class="st1" d="M87.78,603.28H12.56c-1.23,0-2.23,1-2.23,2.23v2.59c0-1.23,1-2.23,2.23-2.23h75.22c1.23,0,2.23,1,2.23,2.23
		v-2.59C90.01,604.28,89.01,603.28,87.78,603.28z"/>
	<path class="st3" d="M87.78,630.63H12.56c-1.23,0-2.23-1-2.23-2.23v-5.78c0-1.23,1-2.23,2.23-2.23h75.22c1.23,0,2.23,1,2.23,2.23
		v5.78C90.01,629.63,89.01,630.63,87.78,630.63z"/>
	<path class="st1" d="M87.78,620.39H12.56c-1.23,0-2.23,1-2.23,2.23v2.59c0-1.23,1-2.23,2.23-2.23h75.22c1.23,0,2.23,1,2.23,2.23
		v-2.59C90.01,621.39,89.01,620.39,87.78,620.39z"/>
	<path class="st3" d="M87.78,647.74H12.56c-1.23,0-2.23-1-2.23-2.23v-5.78c0-1.23,1-2.23,2.23-2.23h75.22c1.23,0,2.23,1,2.23,2.23
		v5.78C90.01,646.74,89.01,647.74,87.78,647.74z"/>
	<path class="st1" d="M87.78,637.5H12.56c-1.23,0-2.23,1-2.23,2.23v2.59c0-1.23,1-2.23,2.23-2.23h75.22c1.23,0,2.23,1,2.23,2.23
		v-2.59C90.01,638.5,89.01,637.5,87.78,637.5z"/>
	<path class="st3" d="M87.78,664.86H12.56c-1.23,0-2.23-1-2.23-2.23v-5.78c0-1.23,1-2.23,2.23-2.23h75.22c1.23,0,2.23,1,2.23,2.23
		v5.78C90.01,663.86,89.01,664.86,87.78,664.86z"/>
	<path class="st1" d="M87.78,654.62H12.56c-1.23,0-2.23,1-2.23,2.23v2.59c0-1.23,1-2.23,2.23-2.23h75.22c1.23,0,2.23,1,2.23,2.23
		v-2.59C90.01,655.61,89.01,654.62,87.78,654.62z"/>
	<path class="st0" d="M90.9,170.49v-42.95l-9.69-7.1c0,0-14.37-7.1-29.22-7.1s-29.22,7.1-29.22,7.1l-9.69,7.1v42.95l-2.74,3.87v2.42
		c5.97-8.23,10.98-6.94,10.98-6.94v0c0-6.56,5.23-11.92,11.78-12.1l18.89-0.5l18.89,0.5c6.56,0.17,11.78,5.54,11.78,12.1v0
		c0,0,5-1.29,10.98,6.94v-2.42L90.9,170.49z"/>
</g>
</svg>
