<?xml version="1.0" encoding="utf-8"?>
<!-- Generator: Adobe Illustrator 23.1.0, SVG Export Plug-In . SVG Version: 6.00 Build 0)  -->
<svg version="1.1" id="Layer_1" xmlns="http://www.w3.org/2000/svg" xmlns:xlink="http://www.w3.org/1999/xlink" x="0px" y="0px"
	 viewBox="0 0 129.47 666.44" style="enable-background:new 0 0 129.47 666.44;" xml:space="preserve">
<style type="text/css">
	.st0{fill:#CCCCCC;}
	.st1{fill:#808080;}
	.st2{fill:#999999;}
	.st3{fill:#B3B3B3;}
	.st4{fill:none;stroke:#808080;stroke-miterlimit:10;}
	.st5{fill:#666666;}
	.st6{fill:url(#SVGID_1_);}
	.st7{fill:none;stroke:#808080;stroke-width:2;stroke-miterlimit:10;}
	.st8{fill:none;stroke:#999999;stroke-linecap:round;stroke-miterlimit:10;}
	.st9{fill:none;stroke:#B3B3B3;stroke-miterlimit:10;}
	.st10{fill:none;stroke:#4D4D4D;stroke-miterlimit:10;}
	.st11{fill:none;stroke:#CCCCCC;stroke-width:3;stroke-linecap:round;stroke-miterlimit:10;}
	.st12{fill:none;stroke:#E6E6E6;stroke-width:3;stroke-linecap:round;stroke-miterlimit:10;}
	.st13{fill:none;stroke:#808080;stroke-width:2;stroke-linecap:round;stroke-miterlimit:10;}
	.st14{fill:none;stroke:#808080;stroke-width:4;stroke-linecap:round;stroke-miterlimit:10;}
	.st15{fill:none;stroke:#808080;stroke-linecap:round;stroke-miterlimit:10;}
</style>
<g>
	
		<rect x="25.81" y="153.07" transform="matrix(-1 -8.977098e-11 8.977098e-11 -1 130 346.6959)" class="st1" width="78.38" height="40.56"/>
	
		<rect x="41.81" y="177.45" transform="matrix(-1 -8.981006e-11 8.981006e-11 -1 131.7427 371.074)" class="st5" width="48.12" height="16.18"/>
	<path class="st5" d="M9.38,26.98h110.84c1.16,0,2.1,0.94,2.1,2.1v35.94c0,1.16-0.94,2.1-2.1,2.1H9.38c-1.16,0-2.1-0.94-2.1-2.1
		V29.08C7.28,27.92,8.22,26.98,9.38,26.98z"/>
	<path class="st0" d="M30.18,168.57h70.53c7.37,0,13.38-5.91,13.5-13.28l2.4-138.14c0.08-4.89-2.73-9.41-7.22-11.35
		C102.67,2.91,89.85,0,65.44,0C41.04,0,28.22,2.91,21.5,5.8c-4.49,1.93-7.3,6.46-7.22,11.35l2.4,138.14
		C16.8,162.66,22.81,168.57,30.18,168.57z"/>
	<path class="st1" d="M108.29,67.13l-6.04,21.58c0,0-11.87-2.59-37.45-2.59s-37.45,2.59-37.45,2.59l-6.48-21.58
		c0,0,18.78-6.48,43.71-6.48S108.29,67.13,108.29,67.13z"/>
	<path class="st3" d="M95.15,63.76l-6.08-62.6c-2.8-0.32-5.88-0.58-9.27-0.77l12.94,62.9L95.15,63.76z"/>
	<path class="st3" d="M36.55,63.29l12.92-62.8c-3.41,0.22-6.48,0.52-9.27,0.87l-6.06,62.4L36.55,63.29z"/>
	<path class="st0" d="M81.33,7.85c0,0-5.85-4.39-16.75-4.39S47.96,7.85,47.96,7.85"/>
	<line class="st12" x1="81.36" y1="152.17" x2="81.36" y2="97.78"/>
	<line class="st12" x1="65.44" y1="152.17" x2="65.44" y2="97.78"/>
	<line class="st12" x1="49.53" y1="152.17" x2="49.53" y2="97.78"/>
	<polygon class="st1" points="108.29,89.57 104.19,97.78 104.19,129.72 108.29,133 	"/>
	<polygon class="st1" points="20.87,89.57 24.97,97.78 24.97,129.72 20.87,133 	"/>
	<path class="st0" d="M20.87,69.42c0,1.15-1.08,2.01-2.19,1.73c-1.73-0.44-4.31-0.84-7.09-0.36c-4.96,0.86-7.34,3.45-8.42,1.08
		s2.05-3.67,6.2-4.75c2.97-0.77,7.57-0.44,9.95-0.19c0.88,0.09,1.55,0.84,1.55,1.73V69.42z"/>
	<path class="st0" d="M108.29,69.42c0,1.15,1.08,2.01,2.19,1.73c1.73-0.44,4.31-0.84,7.09-0.36c4.96,0.86,7.34,3.45,8.42,1.08
		c1.08-2.37-2.05-3.67-6.2-4.75c-2.97-0.77-7.57-0.44-9.95-0.19c-0.88,0.09-1.55,0.84-1.55,1.73V69.42z"/>
	<path class="st1" d="M21.5,9.08c6.72-2.89,19.54-5.8,43.95-5.8s37.23,2.91,43.95,5.8c4.25,1.83,6.96,5.99,7.17,10.57l0.04-2.5
		c0.08-4.89-2.73-9.41-7.22-11.35C102.67,2.91,89.85,0,65.44,0S28.22,2.91,21.5,5.8c-4.49,1.93-7.3,6.46-7.22,11.35l0.04,2.5
		C14.54,15.07,17.25,10.91,21.5,9.08z"/>
	<path class="st3" d="M14.28,17.15l0.04,2.5c3.3-9.26,11.92-12.42,16.23-13.45c1.49-0.35,2.53-1.69,2.53-3.23v-0.5
		C27.98,3.46,24.23,4.63,21.5,5.8C17.01,7.73,14.2,12.26,14.28,17.15z"/>
	<path class="st3" d="M116.61,17.15l-0.04,2.5c-3.3-9.26-11.92-12.42-16.23-13.45c-1.49-0.35-2.53-1.69-2.53-3.23v-0.5
		c5.11,0.98,8.86,2.16,11.59,3.33C113.88,7.73,116.69,12.26,116.61,17.15z"/>
	<path class="st3" d="M107.2,166.9l-4.59-9.49c-0.59-1.21-2.05-1.68-3.25-1.06c-3.47,1.77-12.45,4.56-34.56,4.56
		c-20.4,0-29.18-2.37-32.89-4.13c-1.63-0.77-3.57-0.13-4.44,1.45l-4.54,8.23c0,0,2.61,2.12,7.26,2.12s67.62,0,67.62,0
		S104.33,169.02,107.2,166.9z"/>
	
		<rect x="0" y="228.45" transform="matrix(-1 -8.977631e-11 8.977631e-11 -1 129.4705 504.232)" class="st5" width="129.47" height="47.32"/>
	
		<rect x="0" y="281.21" transform="matrix(-1 -8.980429e-11 8.980429e-11 -1 129.4705 609.734)" class="st5" width="129.47" height="47.32"/>
	
		<rect x="0" y="522.32" transform="matrix(-1 -8.980429e-11 8.980429e-11 -1 129.4705 1091.9706)" class="st5" width="129.47" height="47.32"/>
	
		<rect x="0" y="575.08" transform="matrix(-1 -8.980429e-11 8.980429e-11 -1 129.4705 1197.4727)" class="st5" width="129.47" height="47.32"/>
	
		<rect x="38.51" y="658.66" transform="matrix(-1 -8.983315e-11 8.983315e-11 -1 129.4705 1325.0994)" class="st5" width="52.44" height="7.78"/>
	
		<rect x="6.35" y="191.4" transform="matrix(-1 -8.980829e-11 8.980829e-11 -1 130.9045 853.9516)" class="st0" width="118.2" height="471.15"/>
</g>
</svg>
