<?xml version="1.0" encoding="utf-8"?>
<!-- Generator: Adobe Illustrator 23.1.0, SVG Export Plug-In . SVG Version: 6.00 Build 0)  -->
<svg version="1.1" id="Layer_1" xmlns="http://www.w3.org/2000/svg" xmlns:xlink="http://www.w3.org/1999/xlink" x="0px" y="0px"
	 viewBox="0 0 114.57 296.06" style="enable-background:new 0 0 114.57 296.06;" xml:space="preserve">
<style type="text/css">
	.st0{fill:#f7f7f9;stroke:#000000;stroke-width:2;}
	.st1{fill:#f7f7f9;stroke:#000000;stroke-width:3;}
	.st2{fill:#d7363b;stroke:#000000;stroke-width:2;}
	.st3{fill:#f7f7f9;stroke:#000000;stroke-width:2;}
	.st4{fill:#000000;}
	.st5{fill:none;stroke:#000000;stroke-width:3;stroke-linecap:round;stroke-miterlimit:10;}
</style>
<g>
	<path class="st4" d="M112.61,33.21H1.96C0.88,33.21,0,34.09,0,35.17l0,36.76c0,1.08,0.88,1.96,1.96,1.96h110.65
		c1.08,0,1.96-0.88,1.96-1.96V35.17C114.57,34.09,113.69,33.21,112.61,33.21z"/>
	<path class="st3" d="M17.81,0l78.75,0c7.65,0,13.76,6.36,13.46,14l-3.11,79.15H7.47L4.35,14C4.05,6.36,10.17,0,17.81,0z"/>
	<path class="st1" d="M20.02,13.41c-0.02-0.19,0.05-0.38,0.21-0.49c1.12-0.8,7.12-3.5,36.95-3.5c29.79,0,35.58,2.69,36.65,3.5
		c0.15,0.11,0.22,0.3,0.2,0.48l-1.61,14.56c-0.03,0.3-0.29,0.51-0.59,0.47c-2.58-0.34-14.54-1.74-34.81-1.38
		c-20.33,0.36-32.3,1.22-34.83,1.41c-0.29,0.02-0.53-0.19-0.57-0.48L20.02,13.41z"/>
	<polygon class="st4" points="99.83,36.75 94.04,44.81 94.04,75.07 99.83,79 	"/>
	<polygon class="st4" points="14.13,36.75 19.92,44.81 19.92,75.07 14.13,79 	"/>
	<line class="st5" x1="81.38" y1="78.21" x2="81.38" y2="38.32"/>
	<line class="st5" x1="34" y1="78.21" x2="34" y2="38.32"/>
	<polygon class="st1" points="106.91,93.15 94.04,85.09 20.02,85.09 7.47,93.15 	"/>
	<path class="st1" d="M96.93,33.21c0,0,12.53,8.65,14.1,6.49c1.57-2.16-11.2-9.63-11.2-9.63S97.38,29.67,96.93,33.21z"/>
	<path class="st1" d="M17.03,33.21c0,0-12.53,8.65-14.1,6.49s11.2-9.63,11.2-9.63S16.58,29.67,17.03,33.21z"/>
	<path class="st1" d="M17.81,3.15h78.75c7.06,0,12.79,5.42,13.4,12.26l0.06-1.41c0.3-7.64-5.81-14-13.46-14L17.81,0
		C10.17,0,4.05,6.36,4.35,14l0.06,1.41C5.02,8.57,10.76,3.15,17.81,3.15z"/>
	<path class="st0" d="M94.37,4.72H84.11c-1.51,0-2.73-1.22-2.73-2.73V0L97.1,0v1.99C97.1,3.49,95.88,4.72,94.37,4.72z"/>
	<path class="st0" d="M30.02,4.72H19.76c-1.51,0-2.73-1.22-2.73-2.73V0l15.72,0v1.99C32.75,3.49,31.53,4.72,30.02,4.72z"/>
	
		<rect x="0" y="93.15" transform="matrix(-1 -8.978253e-11 8.978253e-11 -1 114.5703 386.3554)" class="st1" width="114.57" height="200.06"/>
	
		<rect x="16.06" y="104.65" transform="matrix(-1 -8.979185e-11 8.979185e-11 -1 114.5703 386.3554)" class="st2" width="82.45" height="177.05"/>
	<polygon class="st4" points="38.39,296.06 80.31,296.06 97.18,293.21 21.51,293.21 	"/>
</g>
</svg>
