<?xml version="1.0" encoding="utf-8"?>
<!-- Generator: Adobe Illustrator 23.1.0, SVG Export Plug-In . SVG Version: 6.00 Build 0)  -->
<svg version="1.1" id="Layer_1" xmlns="http://www.w3.org/2000/svg" xmlns:xlink="http://www.w3.org/1999/xlink" x="0px" y="0px"
	 viewBox="0 0 142.75 334.2" style="enable-background:new 0 0 142.75 334.2;" xml:space="preserve">
<style type="text/css">
	.st0{fill:#CCCCCC;}
	.st1{fill:#808080;}
	.st2{fill:#999999;}
	.st3{fill:#B3B3B3;}
	.st4{fill:none;stroke:#808080;stroke-miterlimit:10;}
	.st5{fill:#666666;}
	.st6{fill:url(#SVGID_1_);}
	.st7{fill:none;stroke:#808080;stroke-width:2;stroke-miterlimit:10;}
	.st8{fill:none;stroke:#999999;stroke-linecap:round;stroke-miterlimit:10;}
	.st9{fill:none;stroke:#B3B3B3;stroke-miterlimit:10;}
	.st10{fill:none;stroke:#4D4D4D;stroke-miterlimit:10;}
	.st11{fill:none;stroke:#CCCCCC;stroke-width:3;stroke-linecap:round;stroke-miterlimit:10;}
	.st12{fill:none;stroke:#E6E6E6;stroke-width:3;stroke-linecap:round;stroke-miterlimit:10;}
	.st13{fill:none;stroke:#808080;stroke-width:2;stroke-linecap:round;stroke-miterlimit:10;}
	.st14{fill:none;stroke:#808080;stroke-width:4;stroke-linecap:round;stroke-miterlimit:10;}
	.st15{fill:none;stroke:#808080;stroke-linecap:round;stroke-miterlimit:10;}
</style>
<g>
	<path class="st5" d="M136.88,303.63H6.2c-3.22,0-5.83-2.61-5.83-5.83v-35.3c0-3.22,2.61-5.83,5.83-5.83h130.68
		c3.22,0,5.83,2.61,5.83,5.83v35.3C142.71,301.02,140.1,303.63,136.88,303.63z"/>
	<path class="st5" d="M136.88,198.2H6.2c-3.22,0-5.83-2.61-5.83-5.83v-35.3c0-3.22,2.61-5.83,5.83-5.83h130.68
		c3.22,0,5.83,2.61,5.83,5.83v35.3C142.71,195.59,140.1,198.2,136.88,198.2z"/>
	<rect x="11.33" y="327.84" class="st3" width="15.98" height="6.36"/>
	<rect x="115.77" y="327.84" class="st3" width="15.98" height="6.36"/>
	<path class="st3" d="M114.3,76.13H28.58c-11.73,0-20.95-10.01-20.01-21.69l1.15-14.17c0.84-10.42,9.55-18.45,20.01-18.45h83.42
		c10.46,0,19.16,8.03,20.01,18.45l1.15,14.17C135.25,66.12,126.02,76.13,114.3,76.13z"/>
	<path class="st3" d="M112.22,99.85H30.65V45.39l2.92-35.45C33.71,8.21,35,6.79,36.7,6.47c4.83-0.9,15.89-2.46,34.74-2.46
		c18.83,0,29.9,1.56,34.73,2.46c1.71,0.32,2.99,1.74,3.13,3.48l2.93,36.63V99.85z"/>
	<path class="st0" d="M122.9,128.04H19.97V59.32l3.69-44.73c0.18-2.18,1.8-3.97,3.95-4.37c6.09-1.14,20.05-3.11,43.83-3.11
		c23.77,0,37.73,1.97,43.82,3.11c2.16,0.4,3.78,2.2,3.95,4.39l3.69,46.22V128.04z"/>
	<path class="st13" d="M119.63,17.05L119.63,17.05c1.04,0,1.85-0.87,1.79-1.9c-0.1-1.87-0.44-4.79-1.47-7.32
		c-0.19-0.47-0.56-0.83-1.03-1.01C115.73,5.61,101.67,1,72.84,1h-2.61C41.41,1,27.35,5.61,24.17,6.82C23.69,7,23.32,7.36,23.13,7.83
		c-1.03,2.53-1.37,5.45-1.47,7.32c-0.06,1.03,0.76,1.9,1.79,1.9h0"/>
	<line class="st13" x1="38.58" y1="1.77" x2="38.58" y2="9.03"/>
	<line class="st13" x1="104.15" y1="1.77" x2="104.15" y2="9.03"/>
	<path class="st1" d="M21.77,70.02c-0.07-0.58,0.28-1.13,0.83-1.33c4.29-1.53,22.9-7.61,48.94-7.61c25.63,0,42.42,5.89,46.61,7.53
		c0.59,0.23,0.92,0.87,0.75,1.49l-0.8,3.04c-0.18,0.69-0.89,1.09-1.58,0.89c-3.94-1.16-17.58-4.48-45.1-4.48
		c-27.67,0-43.26,3.35-47.78,4.5c-0.74,0.19-1.47-0.32-1.56-1.08L21.77,70.02z"/>
	<g>
		<path class="st1" d="M33.77,60.89c0,0,1.05-0.55,2.94-1.3c0.95-0.37,2.1-0.83,3.44-1.27c1.34-0.45,2.86-0.95,4.54-1.38
			c0.84-0.22,1.71-0.45,2.62-0.69c0.91-0.22,1.86-0.41,2.83-0.62c0.98-0.19,1.98-0.39,3-0.6c1.03-0.2,2.09-0.32,3.16-0.49
			c2.15-0.27,4.38-0.62,6.66-0.73c2.28-0.14,4.6-0.25,6.93-0.29c1.25,0.01,2.3,0.06,3.46,0.09c1.13,0.03,2.32,0.11,3.47,0.17
			c2.3,0.11,4.52,0.44,6.68,0.71c2.16,0.26,4.22,0.68,6.17,1.08c1.95,0.38,3.78,0.86,5.45,1.32c1.68,0.44,3.2,0.94,4.53,1.4
			c1.34,0.44,2.49,0.91,3.44,1.28c0.95,0.37,1.67,0.73,2.17,0.95c0.49,0.24,0.76,0.38,0.76,0.38l0.04,0.02
			c0.1,0.05,0.14,0.17,0.09,0.27c-0.04,0.08-0.13,0.13-0.22,0.1c0,0-1.1-0.26-3.05-0.63c-1.95-0.38-4.75-0.85-8.11-1.34
			c-3.37-0.49-7.31-0.96-11.55-1.3c-2.12-0.17-4.31-0.3-6.54-0.38c-2.22-0.09-4.5-0.12-6.76-0.11c-2.27,0-4.53,0.06-6.76,0.15
			c-1.11,0.06-2.22,0.12-3.31,0.18c-1.09,0.08-2.17,0.16-3.23,0.23c-2.12,0.18-4.16,0.38-6.1,0.6c-1.94,0.23-3.76,0.46-5.45,0.7
			c-3.37,0.49-6.17,0.94-8.12,1.31c-1.95,0.36-3.06,0.6-3.06,0.6c-0.11,0.02-0.21-0.04-0.23-0.15c-0.02-0.09,0.02-0.18,0.1-0.22
			L33.77,60.89z"/>
	</g>
	<path class="st1" d="M122.9,106.91h3.66c1.33,0,2.42-1.08,2.42-2.42V77.51h-6.07V106.91z"/>
	<path class="st1" d="M19.97,106.91h-3.66c-1.33,0-2.42-1.08-2.42-2.42V77.51h6.07V106.91z"/>
	<rect x="24.2" y="76.13" class="st3" width="4.49" height="6.65"/>
	<rect x="114.18" y="76.13" class="st3" width="4.49" height="6.65"/>
	<path class="st3" d="M76.23,76.23v2.56c0,0.53-0.43,0.97-0.97,0.97h-7.65c-0.53,0-0.97-0.43-0.97-0.97v-2.56
		c0-0.53,0.43-0.97,0.97-0.97h7.65C75.8,75.27,76.23,75.7,76.23,76.23z"/>
	<path class="st3" d="M101.07,76.23v2.56c0,0.53-0.43,0.97-0.97,0.97h-7.65c-0.53,0-0.97-0.43-0.97-0.97v-2.56
		c0-0.53,0.43-0.97,0.97-0.97h7.65C100.64,75.27,101.07,75.7,101.07,76.23z"/>
	<path class="st3" d="M51.39,76.23v2.56c0,0.53-0.43,0.97-0.97,0.97h-7.65c-0.53,0-0.97-0.43-0.97-0.97v-2.56
		c0-0.53,0.43-0.97,0.97-0.97h7.65C50.96,75.27,51.39,75.7,51.39,76.23z"/>
	<g>
		<path class="st1" d="M21.13,55.55c0,0,0.1-0.42,0.29-1.21c0.09-0.39,0.21-0.88,0.34-1.45c0.16-0.57,0.21-1.23,0.58-1.97
			c0.35-0.71,0.97-1.4,1.85-1.84c0.43-0.22,0.93-0.37,1.46-0.42c0.53-0.04,1.01-0.04,1.55-0.06c2.1-0.07,4.48-0.14,7.07-0.17
			c5.18-0.07,11.22-0.23,17.69-0.26c6.47-0.04,13.38-0.07,20.28-0.11c6.9,0.04,13.81,0.08,20.28,0.11
			c6.47,0.03,12.51,0.19,17.69,0.26c2.6,0.04,4.95,0.09,7.08,0.18c1.17,0.1,2.14,0.68,2.77,1.41c0.65,0.72,0.92,1.64,1.02,2.38
			c0.53,2.97,0.84,4.67,0.84,4.67c0.01,0.03-0.01,0.05-0.04,0.06c-0.03,0.01-0.05-0.01-0.06-0.04c0,0-0.36-1.69-0.98-4.64
			c-0.13-0.74-0.39-1.55-1.02-2.21c-0.6-0.66-1.52-1.16-2.55-1.22c-2.1,0-4.47,0-7.06,0c-10.36,0.01-24.16,0.02-37.97,0.03
			c-13.81-0.01-27.61-0.02-37.97-0.03c-2.59,0-4.96,0-7.07-0.01c-0.52,0-1.04-0.01-1.52,0.01c-0.48,0.03-0.94,0.15-1.35,0.34
			c-0.82,0.38-1.41,1.01-1.76,1.66c-0.35,0.65-0.44,1.35-0.62,1.9c-0.15,0.57-0.28,1.05-0.39,1.44c-0.21,0.78-0.32,1.2-0.32,1.2
			c-0.01,0.03-0.03,0.04-0.06,0.04C21.14,55.6,21.13,55.57,21.13,55.55z"/>
	</g>
	<rect x="15.94" y="104.86" class="st5" width="111" height="8.73"/>
	<path class="st0" d="M107.67,126.22H35.28c-1.94,0-3.46-1.65-3.31-3.58l2.81-35.98c0.13-1.73,1.58-3.06,3.31-3.06h66.78
		c1.73,0,3.18,1.33,3.31,3.06l2.81,35.98C111.13,124.57,109.61,126.22,107.67,126.22z"/>
	<path class="st3" d="M31.97,122.64l2.81-35.98c0.09-1.15,0.76-2.12,1.7-2.64c-1.16,0.6-2.81,2.03-4.52,5.44
		c-2.36,4.71-5.83,15.25-7.43,20.25c-0.59,1.85-0.49,3.86,0.29,5.64c1.78,4.04,5.52,10.88,10.46,10.88
		C33.35,126.22,31.82,124.57,31.97,122.64z"/>
	<path class="st3" d="M110.98,122.64l-2.81-35.98c-0.09-1.15-0.76-2.12-1.7-2.64c1.16,0.6,2.81,2.03,4.52,5.44
		c2.36,4.71,5.83,15.25,7.43,20.25c0.59,1.85,0.49,3.86-0.29,5.64c-1.78,4.04-5.52,10.88-10.46,10.88
		C109.61,126.22,111.13,124.57,110.98,122.64z"/>
	<path class="st3" d="M13.92,125.69l7.86-2.26c0.53-0.15,0.9-0.64,0.9-1.2v-7.4c0-0.69-0.56-1.24-1.24-1.24h-6.46
		c-0.62,0-1.14,0.45-1.23,1.07l-1.4,9.66C12.21,125.21,13.05,125.94,13.92,125.69z"/>
	<path class="st3" d="M128.59,125.69l-7.86-2.26c-0.53-0.15-0.9-0.64-0.9-1.2v-7.4c0-0.69,0.56-1.24,1.24-1.24h6.46
		c0.62,0,1.14,0.45,1.23,1.07l1.4,9.66C130.29,125.21,129.45,125.94,128.59,125.69z"/>
	<polygon class="st1" points="121.17,121.28 19.47,121.28 10.47,128.72 130.17,128.72 	"/>
	<g>
		<path class="st0" d="M138.84,137.23H3.91c-2.16,0-3.91-1.75-3.91-3.91s1.75-3.91,3.91-3.91h134.92c2.16,0,3.91,1.75,3.91,3.91
			S141,137.23,138.84,137.23z"/>
	</g>
	<g>
		<path class="st0" d="M138.84,329.79H3.91c-2.16,0-3.91-1.75-3.91-3.91c0-2.16,1.75-3.91,3.91-3.91h134.92
			c2.16,0,3.91,1.75,3.91,3.91C142.75,328.04,141,329.79,138.84,329.79z"/>
	</g>
	<rect x="3.71" y="133.32" class="st3" width="135.33" height="185.69"/>
	<rect x="3.71" y="319.01" class="st3" width="135.33" height="5.9"/>
	<line class="st14" x1="99.74" y1="323.93" x2="128.97" y2="323.93"/>
	<line class="st14" x1="10.96" y1="323.93" x2="40.19" y2="323.93"/>
	<path class="st3" d="M92.89,87.14H50.19c-2.11,0-3.84,1.67-3.92,3.78l-0.81,22.07c-0.08,2.22,1.7,4.06,3.92,4.06H93.7
		c2.22,0,4-1.84,3.92-4.06L96.8,90.92C96.73,88.81,94.99,87.14,92.89,87.14z"/>
	<line class="st15" x1="50.24" y1="92.21" x2="92.51" y2="92.21"/>
	<line class="st15" x1="50.24" y1="96.82" x2="92.51" y2="96.82"/>
	<line class="st15" x1="50.24" y1="101.43" x2="92.51" y2="101.43"/>
	<line class="st15" x1="50.24" y1="106.03" x2="92.51" y2="106.03"/>
	<line class="st15" x1="50.24" y1="110.64" x2="92.51" y2="110.64"/>
	<path class="st0" d="M19.97,83.81l-4.63-2.66c-0.74-0.43-1.63-0.5-2.43-0.2l-6.43,2.43c-1.87,0.71-3.86-0.67-3.86-2.67v-1.18
		c0-1.01,0.53-1.94,1.4-2.46l5.89-3.49c0.86-0.51,1.92-0.53,2.8-0.06L15.47,75c0.41,0.22,0.88,0.34,1.35,0.34h3.16l1.34,3.37
		c0.29,0.72,0.27,1.52-0.05,2.22L19.97,83.81z"/>
	<path class="st0" d="M122.97,83.81l4.63-2.66c0.74-0.43,1.63-0.5,2.43-0.2l6.43,2.43c1.87,0.71,3.86-0.67,3.86-2.67v-1.18
		c0-1.01-0.53-1.94-1.4-2.46l-5.89-3.49c-0.86-0.51-1.92-0.53-2.8-0.06L127.47,75c-0.41,0.22-0.88,0.34-1.35,0.34h-3.16l-1.34,3.37
		c-0.29,0.72-0.27,1.52,0.05,2.22L122.97,83.81z"/>
</g>
</svg>
