<?xml version="1.0" encoding="utf-8"?>
<!-- Generator: Adobe Illustrator 23.1.0, SVG Export Plug-In . SVG Version: 6.00 Build 0)  -->
<svg version="1.1" id="Layer_1" xmlns="http://www.w3.org/2000/svg" xmlns:xlink="http://www.w3.org/1999/xlink" x="0px" y="0px"
	 viewBox="0 0 96.79 593.21" style="enable-background:new 0 0 96.79 593.21;" xml:space="preserve">
<style type="text/css">
	.st0{fill:#CCCCCC;}
	.st1{fill:#808080;}
	.st2{fill:#999999;}
	.st3{fill:#B3B3B3;}
	.st4{fill:none;stroke:#808080;stroke-miterlimit:10;}
	.st5{fill:#666666;}
	.st6{fill:url(#SVGID_1_);}
	.st7{fill:none;stroke:#808080;stroke-width:2;stroke-miterlimit:10;}
	.st8{fill:none;stroke:#999999;stroke-linecap:round;stroke-miterlimit:10;}
	.st9{fill:none;stroke:#B3B3B3;stroke-miterlimit:10;}
	.st10{fill:none;stroke:#4D4D4D;stroke-miterlimit:10;}
	.st11{fill:none;stroke:#CCCCCC;stroke-width:3;stroke-linecap:round;stroke-miterlimit:10;}
	.st12{fill:none;stroke:#E6E6E6;stroke-width:3;stroke-linecap:round;stroke-miterlimit:10;}
	.st13{fill:none;stroke:#808080;stroke-width:2;stroke-linecap:round;stroke-miterlimit:10;}
	.st14{fill:none;stroke:#808080;stroke-width:4;stroke-linecap:round;stroke-miterlimit:10;}
	.st15{fill:none;stroke:#808080;stroke-linecap:round;stroke-miterlimit:10;}
</style>
<g>
	<rect x="22.44" y="86.87" class="st5" width="52.08" height="45.49"/>
	<rect x="34.2" y="94.39" class="st3" width="10.91" height="11.76"/>
	<rect x="49.56" y="94.39" class="st3" width="10.17" height="11.76"/>
	<rect x="62.84" y="94.39" class="st3" width="11.68" height="11.76"/>
	<rect x="62.84" y="88.67" class="st3" width="11.68" height="1.27"/>
	<polygon class="st3" points="34.2,110.49 34.2,116.63 36.11,116.63 36.11,133.05 45.11,133.05 45.11,116.63 45.11,110.49 	"/>
	<polygon class="st3" points="57.61,110.49 49.56,110.49 49.56,132.36 57.61,132.36 57.61,116.63 59.73,116.63 59.73,110.49 	"/>
	<rect x="62.16" y="110.49" class="st3" width="12.36" height="22.56"/>
	<rect x="22.44" y="110.49" class="st3" width="9.21" height="21.87"/>
	<rect x="22.44" y="86.87" class="st3" width="9.21" height="19.28"/>
	<rect x="11.32" y="88.67" class="st1" width="19.06" height="27.96"/>
	<rect x="11.32" y="104.66" class="st5" width="19.06" height="5.83"/>
	<circle class="st5" cx="19.9" cy="94.39" r="4.45"/>
	<rect x="65.94" y="88.67" class="st1" width="19.06" height="27.96"/>
	<rect x="65.94" y="104.66" class="st5" width="19.06" height="5.83"/>
	<circle class="st5" cx="74.52" cy="94.39" r="4.45"/>
	<path class="st0" d="M85.35,11.77h-73.9c-2.35,0-4.25-1.9-4.25-4.25V5.85c0-2.35,1.9-4.25,4.25-4.25h73.9
		c2.35,0,4.25,1.9,4.25,4.25v1.67C89.59,9.87,87.69,11.77,85.35,11.77z"/>
	<path class="st3" d="M85.01,88.67H11.78c-1.42,0-2.58-1.15-2.58-2.58V18.84h78.38v67.25C87.58,87.51,86.43,88.67,85.01,88.67z"/>
	<rect x="6.35" y="21.24" class="st5" width="2.86" height="45.4"/>
	<polygon class="st5" points="4.6,36.75 6.35,37.83 6.35,25.75 4.6,26.83 	"/>
	
		<rect x="87.58" y="21.24" transform="matrix(-1 -4.516089e-11 4.516089e-11 -1 178.0245 87.8773)" class="st5" width="2.86" height="45.4"/>
	<polygon class="st5" points="92.18,36.75 90.44,37.83 90.44,25.75 92.18,26.83 	"/>
	<path class="st3" d="M89.59,5.85c0-2.35-1.9-4.25-4.25-4.25h-73.9c-2.35,0-4.25,1.9-4.25,4.25v1.67c0,0.04,0,0.08,0.01,0.12
		c0.06-2.29,1.94-4.13,4.24-4.13h73.9c2.31,0,4.18,1.84,4.24,4.13c0-0.04,0.01-0.08,0.01-0.12V5.85z"/>
	<rect x="61.23" class="st1" width="3.27" height="2.25"/>
	<rect x="31.42" class="st1" width="3.27" height="2.25"/>
	<line class="st7" x1="19.37" y1="22.58" x2="19.37" y2="31.79"/>
	<line class="st7" x1="27.85" y1="22.58" x2="27.85" y2="47.26"/>
	<line class="st7" x1="66.51" y1="22.58" x2="66.51" y2="47.26"/>
	<line class="st7" x1="36.11" y1="22.58" x2="36.11" y2="31.79"/>
	<line class="st7" x1="47.33" y1="22.58" x2="47.33" y2="31.79"/>
	<line class="st7" x1="58.14" y1="22.58" x2="58.14" y2="31.79"/>
	<line class="st7" x1="74.55" y1="22.58" x2="74.55" y2="31.79"/>
	<path class="st1" d="M83.85,22.58H12.94c-2.06,0-3.73-1.67-3.73-3.73v-6.73c0-2.06,1.67-3.73,3.73-3.73h70.91
		c2.06,0,3.73,1.67,3.73,3.73v6.73C87.58,20.91,85.91,22.58,83.85,22.58z"/>
	<path class="st1" d="M96.79,22.51c-4.6,0-9.2-3.67-9.2-3.67v4.79h9.2V22.51z"/>
	<path class="st1" d="M0,22.51c4.6,0,9.2-3.67,9.2-3.67v4.79H0L0,22.51z"/>
	<rect x="34.27" y="1.61" class="st5" width="28.25" height="3.18"/>
	<rect x="67.25" y="125.1" class="st1" width="17.05" height="7.94"/>
	<rect x="9.95" y="125.1" class="st1" width="18.85" height="7.94"/>
	<rect x="69.36" y="130.93" class="st5" width="13.45" height="2.86"/>
	<rect x="4.52" y="132.36" class="st0" width="89.28" height="460.85"/>
	<path class="st3" d="M88.94,591.3H9.38c-1.63,0-2.95-1.32-2.95-2.95V137.22c0-1.63,1.32-2.95,2.95-2.95h79.56
		c1.63,0,2.95,1.32,2.95,2.95v451.13C91.89,589.98,90.57,591.3,88.94,591.3z"/>
	<line class="st8" x1="9.95" y1="137.84" x2="9.95" y2="588.14"/>
	<line class="st8" x1="15.46" y1="137.84" x2="15.46" y2="588.14"/>
	<line class="st8" x1="20.98" y1="137.84" x2="20.98" y2="588.14"/>
	<line class="st8" x1="26.5" y1="137.84" x2="26.5" y2="588.14"/>
	<line class="st8" x1="32.01" y1="137.84" x2="32.01" y2="588.14"/>
	<line class="st8" x1="37.53" y1="137.84" x2="37.53" y2="588.14"/>
	<line class="st8" x1="43.04" y1="137.84" x2="43.04" y2="588.14"/>
	<line class="st8" x1="48.56" y1="137.84" x2="48.56" y2="588.14"/>
	<line class="st8" x1="54.08" y1="137.84" x2="54.08" y2="588.14"/>
	<line class="st8" x1="59.59" y1="137.84" x2="59.59" y2="588.14"/>
	<line class="st8" x1="65.11" y1="137.84" x2="65.11" y2="588.14"/>
	<line class="st8" x1="70.63" y1="137.84" x2="70.63" y2="588.14"/>
	<line class="st8" x1="76.14" y1="137.84" x2="76.14" y2="588.14"/>
	<line class="st8" x1="81.66" y1="137.84" x2="81.66" y2="588.14"/>
	<line class="st8" x1="87.17" y1="137.84" x2="87.17" y2="588.14"/>
</g>
</svg>
